<?xml version="1.0" encoding="UTF-8" standalone="no"?>
<svg
   xmlns:dc="http://purl.org/dc/elements/1.1/"
   xmlns:cc="http://creativecommons.org/ns#"
   xmlns:rdf="http://www.w3.org/1999/02/22-rdf-syntax-ns#"
   xmlns:svg="http://www.w3.org/2000/svg"
   xmlns="http://www.w3.org/2000/svg"
   xmlns:sodipodi="http://sodipodi.sourceforge.net/DTD/sodipodi-0.dtd"
   xmlns:inkscape="http://www.inkscape.org/namespaces/inkscape"
   sodipodi:docname="help.svg"
   inkscape:version="1.0 (4035a4fb49, 2020-05-01)"
   version="1.1"
   id="svg2"
   height="32"
   width="32">
  <defs
     id="defs4" />
  <sodipodi:namedview
     inkscape:document-rotation="0"
     inkscape:guide-bbox="true"
     showguides="true"
     width="32px"
     inkscape:window-maximized="1"
     inkscape:window-y="-8"
     inkscape:window-x="1912"
     inkscape:window-height="1057"
     inkscape:window-width="1920"
     showgrid="false"
     inkscape:current-layer="layer1"
     inkscape:document-units="px"
     inkscape:cy="15.191111"
     inkscape:cx="17.460019"
     inkscape:zoom="11.108541"
     inkscape:pageshadow="2"
     inkscape:pageopacity="0.0"
     borderopacity="1.0"
     bordercolor="#666666"
     pagecolor="#ffffff"
     id="base">
    <sodipodi:guide
       id="guide3842"
       position="3.1507288,36.818516"
       orientation="0,1" />
  </sodipodi:namedview>
  <metadata
     id="metadata7">
    <rdf:RDF>
      <cc:Work
         rdf:about="">
        <dc:format>image/svg+xml</dc:format>
        <dc:type
           rdf:resource="http://purl.org/dc/dcmitype/StillImage" />
        <dc:title />
      </cc:Work>
    </rdf:RDF>
  </metadata>
  <g
     transform="translate(0,-1020.3619)"
     id="layer1"
     inkscape:groupmode="layer"
     inkscape:label="Ebene 1">
    <rect
       ry="4.6416383"
       rx="4.1501708"
       y="1019.0928"
       x="33.257561"
       height="37.207474"
       width="40"
       id="rect15313"
       style="fill:#1a1a1a;fill-opacity:1;fill-rule:nonzero;stroke:#ffffff;stroke-width:2;stroke-miterlimit:4;stroke-dasharray:none;stroke-opacity:1" />
    <g
       id="text3838"
       style="font-style:normal;font-weight:normal;font-size:29.0257px;line-height:125%;font-family:'HAW Frutiger Next Regular';-inkscape-font-specification:'HAW Frutiger Next Regular';letter-spacing:0px;word-spacing:0px;fill:#000000;fill-opacity:1;stroke:none"
       transform="matrix(1.700596,0,0,1.0459951,-7.366302,-233.67846)">
      <path
         id="path15364"
         style="fill:#000000"
         d="m 11.745367,1224.326 v -2.5829 h 2.525401 v 2.5829 z m 7.112045,-14.7449 c -1.1e-5,0.7547 -0.121069,1.4126 -0.363176,1.9736 -0.242127,0.561 -0.537244,1.0688 -0.885351,1.5235 -0.348127,0.4547 -0.735071,0.8805 -1.160834,1.2773 -0.42578,0.3969 -0.812872,0.8178 -1.161277,1.2627 -0.348419,0.445 -0.643536,0.9384 -0.885351,1.4802 -0.241828,0.5418 -0.362739,1.1709 -0.362733,1.8872 v 0.4349 h -2.060359 v -0.3773 c -3e-6,-0.8321 0.111164,-1.5432 0.333502,-2.1335 0.22233,-0.5902 0.502832,-1.1175 0.841505,-1.582 0.338663,-0.4644 0.701544,-0.8901 1.088641,-1.2769 0.387086,-0.3868 0.749966,-0.7882 1.088642,-1.2042 0.338661,-0.416 0.619163,-0.8707 0.841505,-1.3641 0.222326,-0.4934 0.333493,-1.0885 0.333502,-1.7853 -9e-6,-1.0063 -0.328934,-1.7706 -0.986776,-2.2929 -0.657856,-0.5223 -1.470424,-0.7835 -2.437706,-0.7835 -0.677342,0 -1.344935,0.072 -2.002782,0.2175 -0.657852,0.1449 -1.2965095,0.3237 -1.9159735,0.5363 l -0.1736158,-1.9736 c 0.6767456,-0.2125 1.3441913,-0.3866 2.0023383,-0.5221 0.658142,-0.1355 1.422435,-0.2033 2.29288,-0.2033 0.774178,0 1.499939,0.1016 2.177283,0.3047 0.677329,0.2032 1.267563,0.5127 1.770703,0.9288 0.503122,0.416 0.89981,0.9289 1.190065,1.5386 0.290235,0.6097 0.435357,1.3209 0.435368,2.1334 z" />
    </g>
    <rect
       rx="4.1501708"
       ry="4.6416383"
       y="1021.8834"
       x="1.2796803"
       height="29.269617"
       width="29.488052"
       id="rect3037"
       style="fill:none;stroke:#000000;stroke-width:1.99999988;stroke-miterlimit:4;stroke-opacity:1;stroke-dasharray:none" />
  </g>
</svg>
